<svg width="14" class="" height="14" viewBox="0 0 14 14" fill="none" xmlns="http://www.w3.org/2000/svg">
<path d="M7 5.44727C8.05908 5.44727 8.9248 4.57715 8.9248 3.51807C8.9248 2.46338 8.05908 1.59326 7 1.59326C5.93213 1.59326 5.06641 2.46338 5.06641 3.51807C5.06641 4.57715 5.93213 5.44727 7 5.44727ZM3.80518 8.75195C4.85986 8.75195 5.72998 7.88184 5.72998 6.82275C5.72998 5.76807 4.85986 4.89795 3.80518 4.89795C2.7373 4.89795 1.87158 5.76807 1.87158 6.82275C1.87158 7.88184 2.7373 8.75195 3.80518 8.75195ZM10.2036 8.75195C11.2583 8.75195 12.1284 7.88184 12.1284 6.82275C12.1284 5.76807 11.2583 4.89795 10.2036 4.89795C9.13574 4.89795 8.27002 5.76807 8.27002 6.82275C8.27002 7.88184 9.13574 8.75195 10.2036 8.75195ZM7 12.0566C8.05908 12.0566 8.9248 11.1821 8.9248 10.1274C8.9248 9.07275 8.05908 8.20264 7 8.20264C5.93213 8.20264 5.06641 9.07275 5.06641 10.1274C5.06641 11.1821 5.93213 12.0566 7 12.0566Z" fill="white"/>
</svg>
